<?xml version="1.0" standalone="no"?>
<!DOCTYPE svg PUBLIC "-//W3C//DTD SVG 20010904//EN"
 "http://www.w3.org/TR/2001/REC-SVG-20010904/DTD/svg10.dtd">
<svg version="1.0" xmlns="http://www.w3.org/2000/svg"
 width="690.000000pt" height="501.000000pt" viewBox="0 0 690.000000 501.000000"
 preserveAspectRatio="xMidYMid meet">
<metadata>
Created by potrace 1.15, written by Peter Selinger 2001-2017
</metadata>
<g transform="translate(0.000000,501.000000) scale(0.100000,-0.100000)"
fill="#000000" stroke="none">
<path d="M3245 4369 c-315 -42 -565 -136 -815 -308 -99 -67 -164 -124 -290
-251 -173 -174 -288 -355 -379 -600 l-40 -105 -185 -3 -186 -2 0 -30 0 -30
2100 0 2100 0 0 30 0 30 -197 2 -196 3 -27 75 c-15 41 -36 95 -48 120 -87 191
-94 201 -268 440 -124 170 -370 363 -599 469 -83 39 -257 101 -335 119 -25 6
-56 14 -70 17 -124 30 -426 43 -565 24z m393 -55 c442 -51 849 -265 1113 -585
46 -56 149 -196 149 -203 0 -3 14 -25 30 -50 51 -75 160 -321 160 -361 0 -22
-79 -20 -96 3 -7 9 -14 23 -14 30 0 14 -25 72 -76 179 -39 79 -148 248 -197
303 -18 20 -50 58 -72 85 -74 91 -204 198 -340 280 -354 211 -785 285 -1175
200 -222 -48 -397 -120 -567 -232 -76 -51 -232 -175 -292 -233 -136 -132 -270
-345 -361 -572 l-22 -58 -44 0 c-54 0 -55 9 -18 101 90 224 200 404 326 538
75 78 232 216 298 261 91 63 200 130 210 130 5 0 24 9 42 19 121 71 357 140
568 166 145 18 224 17 378 -1z m52 -179 c431 -70 782 -293 1033 -656 36 -52
86 -137 112 -189 25 -52 50 -102 54 -110 5 -9 12 -30 16 -48 l7 -32 -89 0 -88
0 -113 113 -112 112 -28 -15 c-15 -9 -53 -31 -84 -49 l-57 -32 -36 55 c-26 41
-49 63 -85 81 -33 17 -67 47 -105 95 -64 80 -136 183 -159 229 -9 17 -22 31
-29 31 -6 0 -29 -32 -50 -70 -21 -39 -42 -70 -46 -70 -8 0 -71 158 -71 179 0
6 -8 15 -18 19 -42 17 -132 86 -145 110 -14 28 -39 71 -77 135 -12 20 -25 37
-29 37 -4 0 -22 -16 -41 -35 -18 -19 -54 -41 -80 -50 -42 -14 -52 -24 -104
-105 -32 -49 -62 -92 -67 -95 -5 -3 -34 -10 -65 -15 -31 -5 -62 -14 -70 -21
-7 -6 -39 -49 -71 -95 -31 -46 -61 -84 -66 -84 -6 0 -25 11 -44 26 -18 14 -37
23 -41 20 -5 -3 -39 -50 -77 -105 -47 -69 -77 -103 -96 -110 -15 -5 -44 -32
-64 -60 -20 -28 -42 -51 -49 -51 -6 0 -23 10 -36 23 -14 12 -40 32 -59 45
l-32 24 -57 -53 c-31 -29 -95 -90 -142 -136 l-85 -83 -86 0 c-47 0 -88 3 -92
6 -7 7 51 144 93 220 233 425 658 727 1140 809 103 17 385 18 490 0z m-150
-266 c24 -44 69 -108 100 -142 51 -56 63 -80 85 -163 3 -11 -1 -37 -10 -57
-21 -50 -19 -81 8 -125 25 -39 71 -115 118 -194 16 -27 24 -48 20 -48 -5 0
-40 32 -77 70 -38 39 -72 70 -76 70 -10 0 10 -37 36 -67 30 -36 10 -43 -45
-16 -37 17 -59 22 -78 17 -14 -4 -28 -8 -31 -8 -3 -1 -12 -6 -20 -11 -17 -11
-149 -55 -166 -55 -7 0 -15 25 -19 57 -4 31 -9 62 -12 68 -2 7 9 29 26 48 17
19 31 38 31 43 0 4 -12 20 -27 36 l-26 27 -47 -39 c-26 -22 -50 -37 -53 -33
-4 3 -3 11 1 17 5 6 20 32 35 57 l26 46 -32 64 c-17 35 -33 67 -35 72 -6 12
27 8 58 -8 25 -13 29 -13 34 1 14 36 6 75 -20 99 -33 30 -27 46 22 64 63 22
73 35 63 84 -4 23 -8 46 -9 50 0 12 51 57 65 57 7 0 31 -36 55 -81z m463 -352
c28 -40 57 -83 63 -97 6 -14 19 -42 27 -62 16 -36 19 -38 60 -38 43 0 45 -1
60 -42 21 -54 32 -108 22 -108 -4 0 -25 10 -48 23 -22 12 -42 18 -44 12 -15
-41 -22 -40 -75 11 -29 28 -78 68 -108 90 -38 27 -49 40 -37 42 22 4 22 11 -8
78 -31 69 -31 74 -2 71 21 -2 22 1 18 52 -4 66 2 63 72 -32z m-1043 -46 c36
-24 67 -46 70 -48 2 -2 7 -25 10 -50 5 -48 7 -50 80 -82 l45 -19 -97 -1 c-72
-1 -100 -5 -112 -16 -19 -20 -40 -19 -32 1 18 48 19 67 0 81 -18 13 -18 15 0
47 l17 33 -30 45 c-17 25 -31 52 -31 59 0 9 3 10 8 4 4 -6 36 -30 72 -54z
m-401 -264 c116 -91 115 -97 -6 -77 -55 9 -82 9 -108 0 -19 -6 -43 -10 -52 -8
-14 3 -7 11 25 31 42 27 42 28 27 57 -18 35 -20 80 -2 80 6 0 59 -37 116 -83z
m1974 44 c10 -16 42 -51 72 -77 30 -27 55 -54 55 -61 0 -9 -17 -13 -55 -13
-49 0 -57 3 -67 24 -6 14 -20 26 -32 28 -15 2 -25 16 -36 45 -13 39 -13 44 5
62 25 28 38 26 58 -8z"/>
<path d="M1563 2969 c14 -8 17 -24 17 -92 0 -51 -5 -88 -12 -95 -9 -9 -3 -12
27 -12 30 0 36 3 27 12 -7 7 -12 29 -12 50 l0 38 50 0 50 0 0 -40 c0 -27 -6
-42 -17 -49 -14 -8 -9 -10 27 -11 34 0 41 3 32 12 -17 17 -16 185 1 191 6 3
-8 6 -33 6 -35 0 -41 -2 -27 -10 11 -7 17 -22 17 -49 l0 -40 -50 0 -50 0 0 38
c0 21 5 43 12 50 9 9 2 12 -32 12 -36 -1 -41 -3 -27 -11z"/>
<path d="M2013 2932 c-3 -7 2 -21 11 -31 14 -15 16 -53 16 -298 0 -237 -2
-282 -15 -293 -8 -7 -15 -19 -15 -26 0 -11 19 -14 80 -14 61 0 80 3 80 14 0 7
-7 19 -15 26 -22 19 -22 571 0 590 27 23 18 40 -22 41 -21 0 -55 2 -77 3 -24
1 -40 -3 -43 -12z"/>
<path d="M2494 2939 c-3 -6 1 -25 10 -44 14 -28 16 -66 14 -227 l-3 -193 -74
215 c-40 118 -78 223 -83 233 -7 13 -22 17 -68 17 -62 0 -77 -13 -45 -40 22
-18 22 -556 0 -586 -27 -35 -19 -44 40 -44 59 0 64 6 40 44 -13 19 -15 59 -13
232 l3 208 85 -239 86 -240 37 -3 37 -3 1 253 c1 303 4 356 24 378 24 26 18
40 -17 41 -18 0 -41 2 -50 4 -10 2 -21 -1 -24 -6z"/>
<path d="M2798 2942 c-145 -3 -153 -6 -123 -46 22 -29 22 -553 0 -582 -29 -38
-20 -44 65 -44 82 0 98 9 63 36 -16 11 -18 30 -18 136 l0 123 28 3 c23 3 30
-2 42 -32 9 -20 22 -36 30 -36 13 0 15 15 13 95 -2 53 -7 96 -13 98 -5 1 -16
-13 -24 -31 -15 -34 -54 -53 -72 -35 -5 5 -8 64 -7 134 l3 124 42 3 c33 2 44
-1 57 -20 9 -12 16 -32 16 -43 0 -26 18 -45 36 -38 10 4 14 25 14 78 0 41 -3
75 -7 77 -5 2 -70 2 -145 0z"/>
<path d="M3078 2942 c-69 -3 -83 -13 -55 -40 9 -10 12 -84 12 -299 0 -220 -3
-287 -12 -290 -7 -3 -13 -13 -13 -24 0 -17 8 -19 75 -19 79 0 88 7 60 44 -23
31 -22 534 1 583 10 19 13 37 8 41 -5 4 -39 6 -76 4z"/>
<path d="M3229 2939 c-9 -5 -8 -14 7 -36 18 -26 19 -48 19 -299 0 -245 -2
-274 -17 -291 -31 -34 -22 -43 42 -43 46 0 60 3 60 15 0 7 -7 18 -14 22 -12 7
-16 50 -20 227 -2 120 -1 215 4 210 4 -5 40 -101 80 -214 40 -113 77 -217 82
-232 9 -24 15 -28 49 -28 l39 0 0 303 c0 260 2 306 16 325 20 29 12 50 -18 46
-12 -1 -35 -3 -50 -3 -31 -1 -36 -16 -14 -40 12 -13 15 -60 18 -218 2 -111 1
-199 -2 -197 -2 3 -39 104 -82 226 -43 122 -80 223 -82 225 -8 8 -105 10 -117
2z"/>
<path d="M3723 2942 c-40 -2 -73 -6 -73 -11 0 -4 7 -16 15 -27 22 -29 22 -576
0 -594 -8 -7 -15 -19 -15 -26 0 -11 19 -14 80 -14 61 0 80 3 80 14 0 7 -7 19
-15 26 -13 11 -15 56 -15 295 0 239 2 284 15 295 16 13 20 37 8 42 -5 2 -41 2
-80 0z"/>
<path d="M3870 2942 c-6 -2 -10 -41 -10 -89 0 -81 1 -84 22 -81 17 2 24 12 30
41 13 61 26 79 56 75 l27 -3 0 -283 c0 -260 -1 -284 -17 -293 -10 -6 -18 -17
-18 -24 0 -12 17 -15 85 -15 47 0 85 3 85 6 0 3 -9 17 -20 31 -19 24 -20 41
-20 304 l0 279 25 0 c29 0 51 -29 60 -82 5 -28 12 -38 26 -38 17 0 19 8 19 85
0 81 -1 85 -22 85 -13 0 -89 2 -171 3 -81 1 -152 1 -157 -1z"/>
<path d="M4253 2934 c-2 -6 5 -26 16 -45 10 -19 40 -106 65 -193 42 -145 46
-169 46 -267 0 -82 -3 -109 -15 -119 -8 -7 -15 -19 -15 -26 0 -11 19 -14 80
-14 61 0 80 3 80 14 0 7 -7 19 -15 26 -12 10 -15 36 -15 119 0 103 2 113 55
270 30 90 63 179 75 198 11 19 18 38 16 42 -3 3 -28 6 -58 6 -50 -1 -53 -2
-49 -25 8 -58 0 -121 -27 -203 -16 -48 -31 -89 -34 -92 -5 -5 -68 225 -68 250
0 8 5 24 12 35 7 10 10 21 7 24 -10 11 -152 11 -156 0z"/>
<path d="M4652 2782 c-7 -2 -12 -12 -12 -22 0 -16 15 -18 163 -25 89 -3 286
-5 437 -3 250 3 275 5 278 20 2 11 -5 19 -20 22 -28 6 -830 14 -846 8z"/>
<path d="M1373 2464 c-3 -9 0 -20 8 -25 8 -5 145 -8 304 -6 l290 2 3 23 3 22
-301 0 c-266 0 -301 -2 -307 -16z"/>
<path d="M4908 2458 c7 -7 12 -44 12 -95 0 -68 -3 -84 -17 -92 -14 -8 -10 -10
22 -10 22 1 32 3 23 6 -15 4 -18 16 -18 80 0 42 2 74 5 71 3 -3 23 -41 44 -84
l38 -79 41 85 40 85 1 -77 c1 -65 -2 -77 -16 -81 -10 -3 5 -5 32 -5 28 0 42 2
33 5 -16 4 -18 17 -18 93 0 74 3 91 18 99 14 9 12 10 -14 11 -29 0 -34 -5 -63
-65 -17 -36 -31 -70 -31 -75 0 -5 -4 -12 -10 -15 -5 -3 -26 30 -46 75 -32 70
-40 80 -62 80 -20 0 -23 -3 -14 -12z"/>
<path d="M1350 2115 l0 -25 178 0 c97 0 182 -4 188 -8 6 -4 13 -16 16 -27 15
-53 69 -187 98 -245 246 -488 679 -835 1187 -953 168 -39 240 -47 426 -47 427
1 797 130 1127 396 71 57 216 203 272 274 125 159 274 440 305 577 3 11 15 24
26 27 12 3 102 6 200 6 l177 0 0 25 0 25 -2100 0 -2100 0 0 -25z m530 -45 c11
-11 20 -27 20 -35 0 -8 4 -23 9 -33 4 -9 29 -62 55 -117 125 -263 301 -464
591 -673 52 -37 231 -123 334 -161 289 -106 653 -121 967 -41 338 86 667 303
875 577 24 32 47 59 52 61 4 2 7 7 7 12 0 5 17 35 39 67 48 72 92 159 132 260
17 43 35 83 40 89 8 10 34 11 83 5 37 -5 -117 -330 -232 -490 -75 -106 -264
-302 -360 -375 -191 -145 -462 -269 -687 -315 -33 -7 -82 -18 -110 -24 -69
-15 -444 -14 -520 2 -269 56 -414 108 -615 222 -184 104 -422 327 -548 511
-72 106 -167 285 -193 363 -7 22 -17 44 -21 50 -12 14 -9 53 5 58 27 11 58 6
77 -13z m1513 -13 c26 -27 66 -33 272 -42 152 -7 235 -20 290 -48 50 -25 64
-43 65 -84 0 -62 -52 -79 -285 -92 -216 -12 -300 -47 -276 -115 16 -43 148
-90 356 -125 147 -25 262 -48 385 -77 165 -39 239 -64 233 -80 -14 -37 -258
-187 -389 -240 -216 -87 -370 -117 -599 -118 -229 0 -391 30 -589 110 -124 50
-299 150 -293 167 2 8 44 15 113 19 147 9 358 36 449 58 22 5 59 13 81 18 23
5 57 18 75 29 28 16 34 25 34 54 0 33 -3 36 -83 77 -64 34 -87 51 -99 77 -15
31 -15 35 4 67 28 47 73 74 155 91 97 20 224 37 274 37 76 0 236 29 255 46 47
43 -24 70 -211 79 -209 11 -260 28 -260 87 0 34 12 36 43 5z"/>
</g>
</svg>
